<svg width="360" height="144" viewBox="0 0 360 144" fill="none" xmlns="http://www.w3.org/2000/svg">
<path d="M164.417 0.0812927C170.27 0.0738796 176.124 0.0664665 181.976 0.117208C179.77 7.90314 177.546 15.689 175.293 23.4609L175.293 23.4616C174.622 26.067 172.142 28.0665 169.435 28.0665L169.435 28.0665C164.591 28.0945 159.748 28.0899 154.904 28.0665L154.904 28.0665C153.455 28.0828 152.189 27.5518 151.016 26.8092C150.197 26.2902 149.424 25.6692 148.666 25.06C148.339 24.7967 148.014 24.5357 147.69 24.286C146.988 23.6996 146.255 23.1501 145.523 22.6012C145.273 22.4139 145.023 22.2267 144.775 22.0382C143.802 21.2993 142.849 20.5391 141.992 19.6693C142.487 17.3506 143.171 15.0779 143.855 12.8034C144.277 11.4013 144.699 9.99852 145.077 8.58385C145.416 7.50019 145.714 6.40193 146.012 5.30398C146.092 5.00753 146.173 4.71111 146.254 4.41501C146.635 3.02524 147.034 1.64206 147.534 0.293928C147.881 0.151364 148.247 0.103211 148.621 0.0864645C148.805 0.0782328 148.99 0.0775978 149.175 0.0769623L149.19 0.0769105C149.379 0.0762535 149.569 0.0753796 149.757 0.0660192C154.643 0.0936708 159.53 0.0874817 164.417 0.0812927Z" stroke="url(#paint0_linear_27_28)" stroke-width="0.05"/>
<path d="M217.405 0.0378538C223.511 0.0315769 229.616 0.0253008 235.719 0.0715516C233.817 7.18097 231.763 14.2497 229.707 21.3181L229.611 21.6481C227.584 28.6167 225.557 35.5857 223.673 42.5933L223.664 42.6248L223.697 42.6248C227.988 42.6295 232.281 42.6283 236.574 42.6271C240.867 42.626 245.161 42.6248 249.454 42.6295L249.455 42.6295C251.381 42.5922 253.252 43.3104 254.741 44.5145L254.741 44.5148C255.699 45.2622 256.657 46.0103 257.615 46.7584C260.862 49.2939 264.11 51.8297 267.376 54.3376C268.594 55.3026 269.898 56.3417 270.386 57.8681L270.387 57.8693C270.964 59.4049 270.559 61.0631 270.119 62.5848C266.145 76.3255 262.203 90.0755 258.261 103.826C255.286 114.202 252.311 124.579 249.323 134.953C247.781 140.323 242.387 144.144 236.82 143.952H236.819C227.155 143.94 217.489 143.946 207.824 143.953C192.302 143.964 176.78 143.975 161.26 143.906C166.143 126.566 171.126 109.254 176.109 91.942C179.766 79.2366 183.423 66.5312 187.041 53.8148C189.405 45.726 191.717 37.6213 194.029 29.5165C196.836 19.677 199.643 9.83726 202.544 0.0250865C207.498 0.0480384 212.452 0.042946 217.405 0.0378538ZM218.343 118.314C219.046 118.212 219.717 117.988 220.274 117.495C220.929 116.936 221.315 116.205 221.599 115.423C221.741 115.032 221.857 114.627 221.969 114.225C221.99 114.149 222.01 114.073 222.031 113.998C222.12 113.672 222.209 113.35 222.307 113.038L222.308 113.037C225.438 102.055 228.587 91.0794 231.737 80.1022C232.355 77.9492 232.973 75.7961 233.59 73.6428L233.591 73.6426C233.701 73.245 233.821 72.8492 233.942 72.453C234.242 71.472 234.541 70.4894 234.682 69.4744L234.682 69.4732C234.786 68.333 233.719 67.3913 232.611 67.4711C230.267 67.4266 227.921 67.4301 225.576 67.4372C225.39 67.4377 225.205 67.4383 225.02 67.4389C222.859 67.4456 220.699 67.4523 218.54 67.4243L218.539 67.4243C218.401 67.4287 218.253 67.4263 218.099 67.4238C218.005 67.4223 217.909 67.4207 217.811 67.4206C217.557 67.4205 217.298 67.4307 217.064 67.4798C216.83 67.5289 216.618 67.6173 216.458 67.775C216.299 67.9327 216.195 68.1574 216.17 68.4744C214.543 74.1851 212.899 79.8925 211.256 85.6002C208.118 96.4961 204.98 107.393 201.949 118.316L201.941 118.347L201.973 118.348C204.658 118.406 207.345 118.4 210.032 118.394C212.094 118.389 214.157 118.384 216.218 118.409L216.219 118.409C216.345 118.407 216.474 118.406 216.603 118.405C217.176 118.402 217.771 118.398 218.343 118.314Z" stroke="url(#paint1_linear_27_28)" stroke-width="0.05"/>
<path d="M16.0876 42.6608C40.5261 42.6148 64.966 42.6205 89.4066 42.6262C107.189 42.6303 124.973 42.6345 142.756 42.6187L142.757 42.6187C144.698 42.5534 146.648 43.1507 148.169 44.3728L148.169 44.3731C150.007 45.7883 151.84 47.2106 153.674 48.6333C156.327 50.6917 158.981 52.7509 161.652 54.7903C162.825 55.6882 163.961 56.7881 164.319 58.2674L164.32 58.2685C164.643 59.3788 164.541 60.4831 164.289 61.578C164.164 62.1254 164 62.67 163.835 63.2116L163.784 63.3778C163.635 63.863 163.487 64.346 163.365 64.8254C159.994 76.6642 156.597 88.4965 153.2 100.329C149.036 114.837 144.871 129.346 140.753 143.867C129.267 144.03 117.773 143.965 106.287 143.9C110.117 130.298 114.028 116.72 117.939 103.142C121.087 92.2132 124.235 81.2848 127.341 70.344C127.702 69.5717 127.51 68.7853 127.03 68.2237C126.55 67.6625 125.782 67.324 124.99 67.4463C123.141 67.4614 121.291 67.4493 119.441 67.4372C116.15 67.4156 112.858 67.3941 109.575 67.5259L109.565 67.5263L109.558 67.5341C109.516 67.5799 109.463 67.6401 109.404 67.7054C109.277 67.8473 109.128 68.0134 109.039 68.1094L109.036 68.1073L109.033 68.1195C103.452 87.4955 97.9186 106.885 92.3851 126.274C90.7141 132.129 89.043 137.984 87.3707 143.839C79.4419 144.009 71.506 143.977 63.5694 143.944C60.4027 143.931 57.2358 143.918 54.0693 143.918C55.0139 140.197 56.0962 136.512 57.1788 132.826C57.7839 130.767 58.389 128.707 58.9702 126.64C60.378 121.725 61.7843 116.81 63.1906 111.895C66.7535 99.4422 70.3164 86.9898 73.9033 74.5446L73.9034 74.5442C74.0474 74.0071 74.2144 73.475 74.3816 72.9419C74.4751 72.6439 74.5687 72.3455 74.6584 72.0459C74.9083 71.2113 75.1276 70.3684 75.2285 69.5005L75.2285 69.5002C75.2904 68.9126 75.0201 68.3775 74.5966 68.0024C74.1736 67.6279 73.5954 67.4109 73.036 67.4603C70.6144 67.4276 68.1917 67.4323 65.7692 67.4381L65.5347 67.4387C63.1899 67.4444 60.8453 67.4501 58.5019 67.4228L58.5002 67.4229C58.3393 67.4321 58.1607 67.4301 57.9742 67.4281C57.8986 67.4272 57.8218 67.4264 57.7443 67.4263C57.4764 67.4258 57.2016 67.434 56.952 67.4818C56.7023 67.5297 56.4756 67.6177 56.3055 67.7785C56.1353 67.9395 56.0242 68.1711 56.0013 68.5012C52.903 79.3786 49.7933 90.2534 46.6836 101.128C42.6134 115.362 38.5432 129.596 34.4986 143.835C32.6021 143.979 30.702 143.966 28.8007 143.954C27.9409 143.948 27.0808 143.942 26.2207 143.951C22.9998 143.942 19.7789 143.947 16.5584 143.952C11.0488 143.96 5.53995 143.968 0.0328273 143.909C3.86215 130.175 7.79167 116.467 11.7212 102.759C14.7859 92.0686 17.8505 81.3779 20.8677 70.6744L20.8679 70.6735C21.5895 67.7215 21.6176 64.6011 21.0179 61.6307L21.0179 61.6307L21.0177 61.6297C20.317 58.7529 19.5407 55.8953 18.7646 53.0385C18.6827 52.7372 18.6009 52.4358 18.5191 52.1345C17.6649 48.9863 16.8206 45.8368 16.0876 42.6608Z" stroke="url(#paint2_linear_27_28)" stroke-width="0.05"/>
<mask id="path-4-inside-1_27_28" fill="white">
<path d="M312.838 43.9556C314.424 42.898 316.347 42.5143 318.238 42.5891C332.156 42.6687 346.083 42.5002 360 42.6734C353.879 50.3294 347.402 57.6907 341.183 65.2625C340.523 65.9879 339.971 66.8677 339.114 67.3684C334.495 67.5743 329.863 67.2655 325.248 67.4854C322.913 67.6539 321.107 69.596 320.643 71.8095C313.802 95.8681 306.819 119.885 299.973 143.943C288.868 143.985 277.758 144.018 266.653 143.925C274.342 116.553 282.312 89.251 290.113 61.9072C290.805 59.2537 292.439 56.8483 294.778 55.3789C300.792 51.5696 306.824 47.7743 312.838 43.9556Z"/>
</mask>
<path d="M312.838 43.9556L312.864 43.9978L312.865 43.9972L312.838 43.9556ZM318.238 42.5891L318.236 42.6391L318.238 42.6391L318.238 42.5891ZM360 42.6734L360.039 42.7046L360.103 42.6246L360.001 42.6234L360 42.6734ZM341.183 65.2625L341.22 65.2962L341.221 65.2943L341.183 65.2625ZM339.114 67.3684L339.117 67.4184L339.129 67.4178L339.14 67.4116L339.114 67.3684ZM325.248 67.4854L325.246 67.4355L325.245 67.4356L325.248 67.4854ZM320.643 71.8095L320.692 71.8232L320.692 71.8198L320.643 71.8095ZM299.973 143.943L299.973 143.993L300.011 143.993L300.021 143.957L299.973 143.943ZM266.653 143.925L266.605 143.911L266.587 143.974L266.653 143.975L266.653 143.925ZM290.113 61.9072L290.161 61.9209L290.161 61.9198L290.113 61.9072ZM294.778 55.3789L294.805 55.4212L294.805 55.4211L294.778 55.3789ZM312.865 43.9972C314.441 42.9469 316.353 42.5645 318.236 42.6391L318.24 42.5392C316.342 42.464 314.407 42.8491 312.81 43.914L312.865 43.9972ZM318.238 42.6391C332.157 42.7187 346.082 42.5502 360 42.7234L360.001 42.6234C346.083 42.4502 332.154 42.6187 318.238 42.5391L318.238 42.6391ZM359.961 42.6421C353.84 50.2986 347.366 57.6565 341.144 65.2308L341.221 65.2943C347.439 57.7249 353.918 50.3603 360.039 42.7046L359.961 42.6421ZM341.146 65.2289C340.98 65.4113 340.821 65.6032 340.663 65.7955C340.505 65.988 340.348 66.1809 340.185 66.3667C339.859 66.7384 339.511 67.0789 339.089 67.3253L339.14 67.4116C339.575 67.1573 339.931 66.8075 340.26 66.4327C340.424 66.2453 340.583 66.051 340.74 65.8589C340.898 65.6666 341.056 65.4765 341.22 65.2962L341.146 65.2289ZM339.112 67.3185C336.804 67.4214 334.493 67.3957 332.18 67.3717C329.868 67.3477 327.555 67.3254 325.246 67.4355L325.251 67.5354C327.556 67.4255 329.866 67.4477 332.179 67.4717C334.491 67.4956 336.806 67.5214 339.117 67.4184L339.112 67.3185ZM325.245 67.4356C322.883 67.606 321.061 69.5686 320.594 71.7993L320.692 71.8198C321.152 69.6234 322.943 67.7018 325.252 67.5353L325.245 67.4356ZM320.595 71.7958C313.753 95.8572 306.772 119.868 299.925 143.93L300.021 143.957C306.867 119.901 313.85 95.879 320.691 71.8232L320.595 71.7958ZM299.973 143.893C288.868 143.935 277.758 143.968 266.653 143.875L266.653 143.975C277.758 144.068 288.868 144.035 299.973 143.993L299.973 143.893ZM266.701 143.938C274.39 116.566 282.359 89.2651 290.161 61.9209L290.065 61.8934C282.264 89.2368 274.294 116.539 266.605 143.911L266.701 143.938ZM290.161 61.9198C290.851 59.2774 292.477 56.8832 294.805 55.4212L294.752 55.3366C292.4 56.8135 290.76 59.2301 290.064 61.8945L290.161 61.9198ZM294.805 55.4211C300.818 51.612 306.851 47.8165 312.864 43.9978L312.811 43.9134C306.797 47.7321 300.765 51.5272 294.752 55.3367L294.805 55.4211Z" fill="url(#paint3_linear_27_28)" mask="url(#path-4-inside-1_27_28)"/>
<defs>
<linearGradient id="paint0_linear_27_28" x1="161.987" y1="0.0410156" x2="161.987" y2="28.1108" gradientUnits="userSpaceOnUse">
<stop stop-color="#FEC34B"/>
<stop offset="1" stop-color="#98752D"/>
</linearGradient>
<linearGradient id="paint1_linear_27_28" x1="215.962" y1="0" x2="215.962" y2="143.986" gradientUnits="userSpaceOnUse">
<stop stop-color="#FEC34B"/>
<stop offset="1" stop-color="#98752D"/>
</linearGradient>
<linearGradient id="paint2_linear_27_28" x1="82.274" y1="42.5889" x2="82.274" y2="143.995" gradientUnits="userSpaceOnUse">
<stop stop-color="#FEC34B"/>
<stop offset="1" stop-color="#98752D"/>
</linearGradient>
<linearGradient id="paint3_linear_27_28" x1="313.327" y1="42.5801" x2="313.327" y2="143.985" gradientUnits="userSpaceOnUse">
<stop stop-color="#FEC34B"/>
<stop offset="1" stop-color="#98752D"/>
</linearGradient>
</defs>
</svg>
