<svg width="360" height="144" viewBox="0 0 360 144" fill="none" xmlns="http://www.w3.org/2000/svg">
<path d="M147.516 0.27598C148.222 -0.0188447 149.008 0.0794303 149.757 0.0419922C160.507 0.102829 171.261 -0.000125369 182.01 0.0934698C179.801 7.88995 177.574 15.6864 175.318 23.4689C174.644 26.0849 172.154 28.0925 169.436 28.0925C164.592 28.1205 159.748 28.1159 154.905 28.0925C151.994 28.1252 149.823 25.9585 147.675 24.3065C145.793 22.7341 143.687 21.4285 141.965 19.6783C142.766 15.9251 144.062 12.2889 145.054 8.57787C145.915 5.82618 146.509 2.98088 147.516 0.27598Z" fill="url(#paint0_linear_22_19)"/>
<path d="M187.017 53.8079C192.254 35.8938 197.233 17.9001 202.526 0C213.603 0.0514774 224.68 -0.0374379 235.752 0.0467978C231.943 14.2873 227.525 28.364 223.697 42.5999C232.28 42.6092 240.867 42.5952 249.455 42.6045C251.387 42.5671 253.264 43.2878 254.757 44.4952C258.964 47.7757 263.162 51.0702 267.392 54.318C268.609 55.282 269.919 56.3256 270.411 57.8606C270.991 59.4049 270.584 61.0709 270.144 62.5918C263.171 86.7019 256.296 110.84 249.347 134.96C247.803 140.341 242.398 144.169 236.819 143.977C211.623 143.945 186.423 144.043 161.227 143.931C169.697 113.854 178.467 83.8613 187.017 53.8079ZM216.196 68.4789C211.46 85.0921 206.593 101.677 201.974 118.323C206.719 118.426 211.469 118.328 216.219 118.384C217.595 118.365 219.153 118.454 220.258 117.476C221.559 116.367 221.797 114.57 222.284 113.03C226.028 99.8942 229.8 86.7674 233.567 73.636C233.951 72.2508 234.461 70.8937 234.657 69.471C234.76 68.3479 233.707 67.4166 232.612 67.4962C227.923 67.4073 223.229 67.5102 218.54 67.4494C217.651 67.4775 216.289 67.2248 216.196 68.4789Z" fill="url(#paint1_linear_22_19)"/>
<path d="M16.0563 42.6368C58.2864 42.5573 100.521 42.6321 142.756 42.5947C144.703 42.5292 146.659 43.1282 148.185 44.3543C152.682 47.8173 157.151 51.3224 161.667 54.7714C162.842 55.6699 163.983 56.7744 164.344 58.2625C164.994 60.4948 163.932 62.6989 163.389 64.8329C155.883 91.194 148.25 117.522 140.772 143.893C129.269 144.057 117.757 143.991 106.254 143.926C113.171 119.366 120.349 94.8817 127.318 70.3363C128.034 68.8107 126.559 67.229 124.992 67.4723C119.853 67.5144 114.706 67.3459 109.577 67.5519C109.446 67.6969 109.188 67.9871 109.057 68.1275C101.789 93.3607 94.6014 118.617 87.3898 143.865C76.2801 144.103 65.1563 143.944 54.0372 143.944C55.5113 138.132 57.3224 132.409 58.9463 126.634C63.9208 109.267 68.8767 91.896 73.8794 74.5387C74.3286 72.8634 75.0025 71.2301 75.2037 69.4986C75.3254 68.3427 74.1414 67.3881 73.037 67.4863C68.1935 67.4208 63.3452 67.5051 58.5017 67.4489C57.5938 67.5004 56.115 67.2009 56.0261 68.5065C48.8707 93.6275 41.6545 118.734 34.5179 143.86C31.7569 144.071 28.9864 143.949 26.2207 143.977C17.4789 143.954 8.73711 144.028 0 143.935C6.81841 119.478 13.955 95.1063 20.8436 70.6686C21.5643 67.7203 21.5924 64.6036 20.9934 61.6366C19.4444 55.2768 17.5257 49.0106 16.0563 42.6368Z" fill="url(#paint2_linear_22_19)"/>
<path d="M312.837 43.9566C314.424 42.899 316.347 42.5152 318.238 42.5901C332.155 42.6697 346.082 42.5012 360 42.6743C353.879 50.3304 347.402 57.6917 341.183 65.2635C340.523 65.9889 339.971 66.8687 339.114 67.3694C334.495 67.5753 329.862 67.2665 325.248 67.4864C322.913 67.6549 321.107 69.597 320.643 71.8105C313.801 95.8692 306.819 119.886 299.973 143.944C288.868 143.986 277.758 144.019 266.653 143.926C274.342 116.554 282.311 89.252 290.112 61.9082C290.805 59.2547 292.438 56.8493 294.778 55.3799C300.792 51.5706 306.824 47.7753 312.837 43.9566Z" fill="url(#paint3_linear_22_19)"/>
<defs>
<linearGradient id="paint0_linear_22_19" x1="142.299" y1="18.0734" x2="179.786" y2="18.1686" gradientUnits="userSpaceOnUse">
<stop stop-color="#F59401"/>
<stop offset="1" stop-color="#F9D40B"/>
</linearGradient>
<linearGradient id="paint1_linear_22_19" x1="162.139" y1="92.4936" x2="264.618" y2="92.6323" gradientUnits="userSpaceOnUse">
<stop stop-color="#F59401"/>
<stop offset="1" stop-color="#F9D40B"/>
</linearGradient>
<linearGradient id="paint2_linear_22_19" x1="1.37124" y1="107.731" x2="155.408" y2="108.176" gradientUnits="userSpaceOnUse">
<stop stop-color="#F59401"/>
<stop offset="1" stop-color="#F9D40B"/>
</linearGradient>
<linearGradient id="paint3_linear_22_19" x1="267.431" y1="107.721" x2="354.816" y2="107.865" gradientUnits="userSpaceOnUse">
<stop stop-color="#F59401"/>
<stop offset="1" stop-color="#F9D40B"/>
</linearGradient>
</defs>
</svg>
