<svg width="350" height="380" viewBox="0 0 350 380" fill="none" xmlns="http://www.w3.org/2000/svg">
<path d="M137.991 155.56L4.41892 185.387C0.201369 186.329 0.266801 192.363 4.50377 193.213L137.904 219.979C139.478 220.295 140.711 221.521 141.035 223.093L172.47 375.468C173.353 379.748 179.478 379.714 180.314 375.425L209.988 223.126C210.298 221.537 211.535 220.291 213.123 219.97L345.621 193.212C349.851 192.357 349.916 186.335 345.706 185.388L213.036 155.57C211.494 155.223 210.3 154.001 209.99 152.452L180.31 4.05192C179.458 -0.210849 173.375 -0.245186 172.475 4.00768L141.033 152.485C140.708 154.017 139.519 155.219 137.991 155.56Z" fill="url(#paint0_linear_39_11)" stroke="black"/>
<defs>
<linearGradient id="paint0_linear_39_11" x1="54" y1="12.5" x2="304.5" y2="381.5" gradientUnits="userSpaceOnUse">
<stop stop-color="#F69802"/>
<stop offset="1" stop-color="#F9D20B"/>
</linearGradient>
</defs>
</svg>
